<svg width="24" height="24" viewBox="0 0 24 24" fill="none" xmlns="http://www.w3.org/2000/svg">
<rect width="24" height="24" fill="white"/>
<path fill-rule="evenodd" clip-rule="evenodd" d="M22 14C22 8.47715 17.5228 4 12 4C6.47715 4 2 8.47715 2 14C2 15.2282 2.22142 16.4047 2.62652 17.4917C2.77941 17.902 3.1208 18.2639 3.55747 18.232C4.13228 18.19 4.79165 17.4706 6.11039 16.0319L7.307 14.7264L7.461 14.5864C8.707 13.5064 10.301 13.5084 11.557 14.6034L11.707 14.7404L13.6934 16.726C13.8628 16.8953 14.1374 16.8955 14.307 16.7264L14.461 16.5864C15.707 15.5064 17.301 15.5084 18.557 16.6034L18.707 16.7404C19.3196 17.4429 19.626 17.7941 19.8554 17.9188C20.085 18.0435 20.3316 18.0996 20.5729 18.0952C20.9874 18.0877 21.2876 17.7372 21.4263 17.3466C21.7978 16.3003 22 15.1737 22 14ZM17.9091 11.0802C17.9091 12.3354 16.8916 13.3529 15.6364 13.3529C14.3812 13.3529 13.3636 12.3354 13.3636 11.0802C13.3636 9.82502 14.3812 8.80748 15.6364 8.80748C16.8916 8.80748 17.9091 9.82502 17.9091 11.0802Z" fill="black"/>
</svg>
