<svg width="24" height="24" viewBox="0 0 24 24" fill="none" xmlns="http://www.w3.org/2000/svg">
<rect width="24" height="24" fill="white"/>
<rect width="13.9604" height="13.9538" transform="matrix(1 0 -0.173648 0.984808 6.15356 5.12909)" fill="black"/>
<path d="M14.5701 13.075C14.4605 13.6966 14.2279 14.2395 13.8723 14.7039C13.5167 15.1682 13.0661 15.5239 12.5207 15.771C11.9752 16.0181 11.3641 16.1417 10.6873 16.1417C10.0105 16.1417 9.43915 16.0181 8.97324 15.771C8.51493 15.5239 8.18983 15.1682 7.99794 14.7039C7.81366 14.2395 7.77632 13.6966 7.88592 13.075L8.78516 7.97514H10.5304L9.63112 13.075C9.53868 13.5992 9.60491 13.9999 9.82981 14.277C10.0623 14.5541 10.4333 14.6926 10.9428 14.6926C11.4523 14.6926 11.8684 14.5541 12.191 14.277C12.5212 13.9999 12.7325 13.5992 12.8249 13.075L13.7242 7.97514H15.4694L14.5701 13.075ZM18.7308 7.98637L17.3245 15.962H15.5793L16.9856 7.98637H18.7308Z" fill="white"/>
</svg>
