<svg width="187" height="181" viewBox="0 0 187 181" fill="none" xmlns="http://www.w3.org/2000/svg">
<g clip-path="url(#clip0_432_1128)">
<rect width="187" height="181" fill="black"/>
<path d="M84.4339 41.4492C78.97 41.4492 74.5407 45.8785 74.5407 51.3424V69.1328C73.9962 71.0292 72.2489 72.4168 70.1774 72.4168H51.3561C46.2204 72.4168 42.057 76.5802 42.057 81.716C42.057 86.8517 46.2204 91.0151 51.3561 91.0151H82.6115C89.0818 91.0151 94.327 85.7698 94.327 79.2995V51.3424C94.327 45.8785 89.8977 41.4492 84.4339 41.4492Z" fill="#F8F8F8"/>
<path d="M101.59 140C107.053 140 111.483 135.571 111.483 130.107L111.483 112.316C112.027 110.42 113.775 109.032 115.846 109.032L134.667 109.032C139.803 109.032 143.966 104.869 143.966 99.7333C143.966 94.5975 139.803 90.4341 134.667 90.4341L103.412 90.4341C96.9416 90.4341 91.6964 95.6794 91.6964 102.15L91.6964 130.107C91.6963 135.571 96.1257 140 101.59 140Z" fill="#F8F8F8"/>
</g>
<defs>
<clipPath id="clip0_432_1128">
<rect width="187" height="181" fill="white"/>
</clipPath>
</defs>
</svg>
