<svg viewBox="0 0 28 28" xmlns="http://www.w3.org/2000/svg" xml:space="preserve" style="fill-rule:evenodd;clip-rule:evenodd;stroke-linejoin:round;stroke-miterlimit:2;">
  <path id="Artboard1" style="fill:none;" d="M0 0h28v28H0z"/>
  <clipPath id="_clip1">
    <path id="Artboard11" d="M0 0h28v28H0z"/>
  </clipPath>
  <g clip-path="url(#_clip1)">
    <circle cx="14" cy="14" r="14" style="fill:rgb(4,159,217);"/>
    <g id="g53688" transform="matrix(.1054 0 0 -.1054 25.384 11.722)">
      <path id="path53690" d="M0 0a4.69 4.69 0 0 1-9.381 0v-9.853a4.694 4.694 0 0 1 4.694-4.699A4.693 4.693 0 0 1 0-9.853V0Zm-25.787 12.932c0 2.586-2.098 4.687-4.746 4.687a4.689 4.689 0 0 1-4.688-4.687V-9.853a4.69 4.69 0 0 1 4.688-4.699c2.648 0 4.746 2.098 4.746 4.699v22.785Zm-25.84 17.692a4.686 4.686 0 0 1-4.687 4.685 4.686 4.686 0 0 1-4.688-4.685v-49.84a4.689 4.689 0 1 1 9.375 0v49.84Zm-25.846-17.692a4.688 4.688 0 0 1-9.375 0V-9.853a4.693 4.693 0 0 1 4.688-4.699 4.688 4.688 0 0 1 4.687 4.699v22.785ZM-103.313 0a4.681 4.681 0 0 1-4.672 4.684c-2.59 0-4.702-2.097-4.702-4.684v-9.853a4.701 4.701 0 0 1 4.702-4.699c2.575 0 4.672 2.098 4.672 4.699V0Zm-25.798 12.932c0 2.586-2.113 4.687-4.702 4.687-2.59 0-4.703-2.101-4.703-4.687V-9.853a4.702 4.702 0 0 1 4.703-4.699 4.702 4.702 0 0 1 4.702 4.699v22.785Zm-25.828 17.692c0 2.587-2.113 4.685-4.703 4.685-2.589 0-4.702-2.098-4.702-4.685v-49.84a4.701 4.701 0 0 1 4.702-4.699 4.701 4.701 0 0 1 4.703 4.699v49.84Zm-25.829-17.692c0 2.586-2.112 4.687-4.702 4.687s-4.702-2.101-4.702-4.687V-9.853a4.701 4.701 0 0 1 4.702-4.699 4.701 4.701 0 0 1 4.702 4.699v22.785ZM-206.596 0c0 2.587-2.112 4.684-4.702 4.684C-213.885 4.684-216 2.587-216 0v-9.853a4.703 4.703 0 0 1 9.404 0V0Zm97.076-40.855c-.282.077-4.621 1.196-9.232 1.196-8.73 0-13.986-4.714-13.986-11.734 0-6.214 4.397-9.313 9.674-10.98.585-.193 1.447-.463 2.021-.653 2.349-.739 4.224-1.837 4.224-3.739 0-2.127-2.167-3.504-6.878-3.504-4.14 0-8.109 1.184-8.945 1.395v-8.637c.466-.099 5.183-1.025 10.222-1.025 7.248 0 15.539 3.167 15.539 12.595 0 4.573-2.8 8.783-8.947 10.737l-2.613.832c-1.559.492-4.342 1.289-4.342 3.574 0 1.805 2.062 3.076 5.859 3.076 3.276 0 7.263-1.101 7.404-1.145v8.012Zm80.041-18.243c0-5.461-4.183-9.879-9.796-9.879-5.619 0-9.791 4.418-9.791 9.879 0 5.45 4.172 9.87 9.791 9.87 5.613 0 9.796-4.42 9.796-9.87m-9.796 19.427c-11.544 0-19.823-8.707-19.823-19.427 0-10.737 8.279-19.438 19.823-19.438 11.543 0 19.834 8.701 19.834 19.438 0 10.72-8.291 19.427-19.834 19.427m-128.655-1.345c-.89.264-4.18 1.345-8.636 1.345-11.526 0-19.987-8.218-19.987-19.427 0-12.093 9.34-19.438 19.987-19.438 4.23 0 7.459 1.002 8.636 1.336v10.075c-.407-.226-3.503-1.992-7.957-1.992-6.31 0-10.38 4.441-10.38 10.019 0 5.748 4.246 10.011 10.38 10.011 4.53 0 7.576-1.805 7.957-2.004v10.075Zm98.86 0c-.897.264-4.19 1.345-8.631 1.345-11.543 0-20.004-8.218-20.004-19.427 0-12.093 9.351-19.438 20.004-19.438 4.207 0 7.441 1.002 8.631 1.336v10.075c-.416-.226-3.516-1.992-7.969-1.992-6.305 0-10.371 4.441-10.371 10.019 0 5.748 4.248 10.011 10.371 10.011 4.529 0 7.582-1.805 7.969-2.004v10.075Zm-76.369-36.852h-9.472v37.532h9.472v-37.532Z" style="fill:white;fill-rule:nonzero;"/>
    </g>
  </g>
</svg>